<?xml version="1.0" encoding="utf-8"?>
<!-- Generator: Adobe Illustrator 27.9.0, SVG Export Plug-In . SVG Version: 6.00 Build 0)  -->
<svg version="1.1" id="Layer_1" xmlns="http://www.w3.org/2000/svg" xmlns:xlink="http://www.w3.org/1999/xlink" x="0px" y="0px"
	 viewBox="0 0 320.2 139.3" style="enable-background:new 0 0 320.2 139.3;" xml:space="preserve">
<style type="text/css">
	.st0{fill:#F29849;}
	.st1{fill:#1E1E1E;}
	.st2{fill:none;stroke:#F29849;stroke-width:14.21;stroke-miterlimit:10;}
</style>
<g>
	<g>
		<g>
			<path class="st1" d="M56.5,57.5c0,8.1,0,25.1,0,25.1H43.4c0,0,0-16.7,0-24.4c0-4-3.3-7.2-7.2-7.2h-22v31.6H0V7.2h36.5
				c15.3,0,21.9,8.3,21.9,18.6c0,12.4-12.5,16.8-14.4,17.1v1.9C50.7,44.9,56.5,50.6,56.5,57.5z M43.9,29.1c0-5-3.6-8.8-9.2-8.8H14.4
				v17.5h20.3C40.4,37.8,43.9,33.9,43.9,29.1z"/>
		</g>
		<g>
			<path class="st1" d="M112,56.3c0,12.7-7.2,27.6-26.4,27.6c-19.3,0-26.5-14.9-26.5-27.6s7.2-27.6,26.5-27.6
				C104.7,28.7,112,43.6,112,56.3z M99.6,56.3c0-7.9-3.7-16.9-14-16.9c-10.3,0-14.1,9-14.1,16.9s3.8,16.9,14.1,16.9
				C95.9,73.2,99.6,64.2,99.6,56.3z"/>
		</g>
		<g>
			<path class="st1" d="M115.3,60.1V30h14.4v29.3c0,6.2,2.9,12.5,11.1,12.9c9.5,0.5,12.8-5.9,13.2-12.6c0.1-2.9,0.3-8.6,0.3-13.2V30
				h14.4v52.5h-14.4v-1.5c0-4.7,2.9-11,2.9-11h-1.9C152.1,82.5,140,85.3,132,83.3C120,80.4,115.3,68.5,115.3,60.1z"/>
		</g>
		<g>
			<path class="st1" d="M177.9,65.1V43.1h-9.5V30h9.5V7.2h14.4V30h16.4v13h-16.4v21.9c0,2.6,1.9,4.6,4.4,4.6c1.6,0,10.9,0,11.9,0v13
				c-3.6,0-3,0-13.5,0C183,82.6,177.9,73.5,177.9,65.1z"/>
		</g>
		<g>
			<path class="st1" d="M236,72.1c6.6,0,9.9-3.8,11.4-7.2h14c-1.4,5.9-7.1,18.9-25.4,18.9c-19.3,0-26.6-14.9-26.6-27.6
				s7.2-27.6,26.6-27.6c19.2,0,27.6,14.5,26.4,30.8h-39.5C223.3,63.9,226.3,72.1,236,72.1z M223.3,51.1l25.4,0.1
				c-0.9-4.5-4.5-10.8-12.7-10.8C227.9,40.5,224.3,46.5,223.3,51.1z"/>
		</g>
		<g>
			<path class="st1" d="M287.8,28.7c10.8,0,15.6,5.9,18,10.3h1.9c0,0-1.9-5.6-1.9-12.8V7.2h14.4v75.4h-14.4V82
				c0-4.1,1.9-8.4,1.9-8.4h-1.9c-2.4,4.4-7.2,10.2-18.4,10.2c-16.5,0-23.4-14.5-23.4-27.6S270.9,28.7,287.8,28.7z M292.1,70.8
				c7.8,0,13.7-5.6,13.7-14.5c0-8.9-6-14.5-13.7-14.5c-7.6,0-13.7,5.6-13.7,14.5C278.4,65.2,284.4,70.8,292.1,70.8z"/>
		</g>
	</g>
	<g>
		<path class="st0" d="M232,120.7H24.7c-13.6,0-24.6-11-24.6-24.6v-5h14.2v5c0,5.7,4.7,10.4,10.4,10.4H232V120.7z"/>
	</g>
	<g>
		<polygon class="st0" points="216.4,139.3 206.3,129.2 221.9,113.6 206.3,98 216.4,88 242,113.6 		"/>
	</g>
	<g>
		
			<rect x="297.2" y="-8.5" transform="matrix(6.123234e-17 -1 1 6.123234e-17 297.2161 311.6419)" class="st1" width="14.4" height="31.5"/>
	</g>
	<g>
		<rect x="305.8" y="24.2" class="st1" width="14.4" height="22.8"/>
	</g>
</g>
</svg>
